HIERARCHY
ROOT root
{
	OFFSET 0.000000 0.000000 0.000000
	CHANNELS 6 Xposition Yposition Zposition Zrotation Yrotation Xrotation
	JOINT lhip
	{
		OFFSET 0.058581 -0.082280 -0.017664
		CHANNELS 3 Zrotation Yrotation Xrotation
		JOINT lknee
		{
			OFFSET 0.043451 -0.386469 0.008037
			CHANNELS 3 Zrotation Yrotation Xrotation
			JOINT lankle
			{
				OFFSET -0.014790 -0.426874 -0.037428
				CHANNELS 3 Zrotation Yrotation Xrotation
				JOINT ltoe
				{
					OFFSET 0.041054 -0.060286 0.122042
					CHANNELS 3 Zrotation Yrotation Xrotation
					End Site
					{
						OFFSET 0.000000 0.000000 0.000000
					}
				}
			}
		}
	}
	JOINT rhip
	{
		OFFSET -0.060310 -0.090513 -0.013543
		CHANNELS 3 Zrotation Yrotation Xrotation
		JOINT rknee
		{
			OFFSET -0.043257 -0.383688 -0.004843
			CHANNELS 3 Zrotation Yrotation Xrotation
			JOINT rankle
			{
				OFFSET 0.019056 -0.420046 -0.034562
				CHANNELS 3 Zrotation Yrotation Xrotation
				JOINT rtoe
				{
					OFFSET -0.034840 -0.062106 0.130323
					CHANNELS 3 Zrotation Yrotation Xrotation
					End Site
					{
						OFFSET 0.000000 0.000000 0.000000
					}
				}
			}
		}
	}
	JOINT lowerback
	{
		OFFSET 0.004439 0.124404 -0.038385
		CHANNELS 3 Zrotation Yrotation Xrotation
		JOINT upperback
		{
			OFFSET 0.004488 0.137956 0.026820
			CHANNELS 3 Zrotation Yrotation Xrotation
			JOINT chest
			{
				OFFSET -0.002265 0.056032 0.002855
				CHANNELS 3 Zrotation Yrotation Xrotation
				JOINT lowerneck
				{
					OFFSET -0.013390 0.211636 -0.033468
					CHANNELS 3 Zrotation Yrotation Xrotation
					JOINT upperneck
					{
						OFFSET 0.010113 0.088937 0.050410
						CHANNELS 3 Zrotation Yrotation Xrotation
						End Site
						{
							OFFSET 0.000000 0.000000 0.000000
						}
					}
				}
				JOINT lclavicle
				{
					OFFSET 0.071702 0.114000 -0.018898
					CHANNELS 3 Zrotation Yrotation Xrotation
					JOINT lshoulder
					{
						OFFSET 0.122921 0.045205 -0.019046
						CHANNELS 3 Zrotation Yrotation Xrotation
						JOINT lelbow
						{
							OFFSET 0.255332 -0.015649 -0.022946
							CHANNELS 3 Zrotation Yrotation Xrotation
							JOINT lwrist
							{
								OFFSET 0.265709 0.012698 -0.007375
								CHANNELS 3 Zrotation Yrotation Xrotation
								End Site
								{
									OFFSET 0.000000 0.000000 0.000000
								}
							}
						}
					}
				}
				JOINT rclavicle
				{
					OFFSET -0.082954 0.112472 -0.023707
					CHANNELS 3 Zrotation Yrotation Xrotation
					JOINT rshoulder
					{
						OFFSET -0.113228 0.046853 -0.008472
						CHANNELS 3 Zrotation Yrotation Xrotation
						JOINT relbow
						{
							OFFSET -0.260127 -0.014369 -0.031269
							CHANNELS 3 Zrotation Yrotation Xrotation
							JOINT rwrist
							{
								OFFSET -0.269108 0.006794 -0.006027
								CHANNELS 3 Zrotation Yrotation Xrotation
								End Site
								{
									OFFSET 0.000000 0.000000 0.000000
								}
							}
						}
					}
				}
			}
		}
	}
}
MOTION
Frames: 13
Frame Time: 0.033333
0.002751 0.218477 0.996536 90.622272 0.108293 87.461553 5.443314 1.316861 -4.392759 -2.975524 -5.549620 13.113806 0.524523 8.979034 -8.487192 0.000000 -0.000000 0.000000 -4.234751 -2.005350 -4.350454 -0.491448 0.787305 13.012398 1.118630 -4.926966 -7.745339 0.000000 -0.000000 0.000000 -0.140075 1.852609 6.911844 -1.862405 -3.195807 8.714550 -3.231364 -0.651597 -8.596615 -5.040022 -8.987904 5.356010 0.001200 -8.561772 4.700556 -30.990921 -2.906040 2.860942 -53.021442 -6.436146 11.829170 18.993080 -30.947399 -12.590232 -2.927514 -10.823054 -1.864949 27.495076 11.079002 4.366835 55.803396 8.753746 16.997128 -5.275595 25.141306 3.598709 7.216139 6.313320 6.423451 
0.003132 0.218809 0.996431 90.447221 0.199774 87.488543 5.524566 1.448324 -4.384922 -3.026373 -5.718563 13.138907 0.409205 9.321801 -8.481194 0.000000 -0.000000 0.000000 -4.150970 -1.929674 -4.387167 -0.440316 0.936011 12.996031 1.226896 -5.074551 -7.722978 0.000000 -0.000000 0.000000 0.140723 1.953437 7.071401 -1.995789 -3.245319 8.175254 -3.268498 -0.612961 -8.284021 -5.321581 -9.377362 5.567234 0.198064 -8.205931 4.504913 -31.156794 -2.806587 3.079089 -52.908374 -6.614071 11.731582 18.951114 -30.756410 -12.352200 -2.892867 -10.806282 -1.948119 27.345157 10.893887 4.317192 56.020628 8.652262 16.935717 -5.254772 24.901029 3.778819 7.116484 6.388322 6.625370 
0.003609 0.218669 0.996503 90.451065 0.304582 87.496349 5.658251 1.564440 -4.399533 -3.046992 -5.802360 13.202165 0.300876 9.294009 -8.493929 0.000000 -0.000000 0.000000 -4.035698 -2.029724 -4.391986 -0.351408 0.952263 13.092980 1.226906 -5.056974 -7.707153 0.000000 -0.000000 0.000000 0.223114 1.887449 7.138293 -1.959116 -3.292529 8.059079 -3.253435 -0.636382 -8.315169 -5.314564 -9.411278 5.575983 0.134716 -8.088234 4.452465 -31.219206 -2.776362 3.099962 -52.858277 -6.474476 11.736271 18.891071 -30.379093 -12.445855 -1.981747 -10.488835 -2.022540 27.245263 10.759714 4.319038 56.071237 8.392039 16.959720 -5.017500 24.679615 3.834896 6.659725 6.252591 6.444573 
0.003813 0.218502 0.996625 90.412090 0.302171 87.581118 5.647277 1.629749 -4.474487 -3.038248 -5.837923 13.235232 0.310296 9.337280 -8.557739 0.000000 -0.000000 0.000000 -3.995439 -1.970389 -4.397342 -0.418064 1.067226 12.916825 1.230109 -5.145413 -7.741060 0.000000 -0.000000 0.000000 0.153432 1.768202 7.128004 -1.945547 -3.323574 7.949976 -3.208079 -0.602247 -8.295261 -5.347450 -9.409222 5.498323 0.224219 -8.007686 4.265834 -31.122570 -2.695636 3.133317 -52.886167 -6.268393 11.749198 18.954652 -29.776271 -12.335304 -2.343219 -10.405350 -1.857169 27.242499 10.758524 4.343632 56.065380 8.062953 16.956176 -4.985473 24.132930 3.963097 6.927452 6.202810 6.479467 
0.003702 0.218559 0.996715 90.375655 0.324963 87.639613 5.641854 1.672391 -4.571404 -3.010846 -5.880825 13.296422 0.301470 9.356403 -8.519575 0.000000 -0.000000 0.000000 -3.969438 -1.978487 -4.511546 -0.371766 1.109014 12.987471 1.219266 -5.079889 -7.713332 0.000000 -0.000000 0.000000 0.156792 1.753306 7.116533 -1.899488 -3.345100 8.006873 -3.197424 -0.597847 -8.386479 -5.371906 -9.442769 5.439338 0.244763 -7.910094 4.161099 -31.068447 -2.683146 3.060951 -52.981562 -6.101963 11.814798 18.932871 -29.122969 -12.543639 -2.028110 -10.261114 -1.696008 27.237385 10.690050 4.330088 55.952725 7.927181 16.907646 -4.794834 23.744821 3.897985 6.990077 6.105240 6.623060 
0.003798 0.218376 0.996761 90.199142 0.331007 87.645096 5.683130 1.702563 -4.469318 -3.057430 -5.897920 13.168278 0.279301 9.518286 -8.477392 0.000000 -0.000000 0.000000 -3.921775 -1.951555 -4.537887 -0.409016 1.250385 12.982945 1.257877 -5.187193 -7.749483 0.000000 -0.000000 0.000000 0.154295 1.795324 7.217843 -1.888653 -3.313835 7.892963 -3.168318 -0.601401 -8.286494 -5.281477 -9.300710 5.132357 0.352472 -7.684203 3.841685 -31.072039 -2.577561 2.984152 -52.683201 -5.900079 11.870507 18.717856 -28.721287 -11.913861 -2.779014 -10.146163 -1.509324 27.237599 10.593757 4.241967 55.946876 7.682731 16.949156 -4.842633 23.136588 4.139127 7.347061 5.927598 6.762154 
0.003725 0.218457 0.996845 90.152667 0.314823 87.724621 5.639483 1.797201 -4.586836 -3.036645 -5.957506 13.238109 0.265730 9.608852 -8.523606 0.000000 -0.000000 0.000000 -3.930352 -1.922941 -4.654730 -0.370187 1.390378 12.979071 1.153684 -5.148940 -7.743206 0.000000 -0.000000 0.000000 0.159695 1.768299 7.216374 -1.883664 -3.370000 7.928786 -3.160296 -0.578831 -8.229122 -5.167412 -9.092412 4.827183 0.645752 -7.395625 2.960527 -31.064295 -2.457597 2.787784 -52.620599 -5.631885 11.871650 18.546654 -28.100953 -11.812952 -2.928086 -10.226634 -1.289113 27.185846 10.498351 4.082652 55.903470 7.513341 16.867868 -4.701398 22.469390 4.199076 7.421752 5.865988 6.977643 
0.003779 0.218355 0.997044 89.958894 0.217856 87.887691 5.525722 2.145440 -4.702316 -3.019832 -6.076340 13.216528 0.142170 9.605729 -8.526686 0.000000 -0.000000 0.000000 -4.073906 -1.925856 -4.967775 -0.281783 1.257295 13.311078 1.295603 -5.143277 -7.704145 0.000000 -0.000000 0.000000 -0.009665 1.706899 6.996052 -1.853834 -3.292265 8.167996 -3.126683 -0.551258 -8.043132 -4.760911 -8.621285 4.331079 1.266199 -7.052318 0.991663 -31.059574 -2.296641 2.316755 -52.500191 -5.237152 11.764355 18.394767 -27.540843 -12.150090 -3.561546 -10.303979 -0.876532 27.173118 10.557658 3.746221 55.768995 7.257809 16.778142 -4.554634 21.731323 4.074528 7.648921 5.847169 7.419463 
0.004043 0.218128 0.997218 89.540153 0.332695 87.631207 5.654800 1.789274 -4.141188 -2.969751 -5.802399 12.899207 0.146385 9.987866 -8.446668 0.000000 -0.000000 0.000000 -3.845391 -1.733394 -4.625102 -0.385751 1.767815 13.025589 1.288902 -5.169263 -7.695461 0.000000 -0.000000 0.000000 0.114364 2.038246 7.400628 -1.851742 -3.347855 8.343398 -3.099708 -0.494388 -7.582503 -4.140953 -8.270142 3.412729 2.320474 -6.649050 -2.161542 -31.080647 -2.282233 1.639286 -52.302921 -4.797540 11.529479 17.995305 -27.367367 -12.039446 -4.233700 -10.722433 -0.107649 26.976767 10.580445 3.173421 55.722053 6.865208 16.587241 -4.596763 21.709446 4.074179 7.884973 5.855754 8.012270 
0.003148 0.217608 0.997907 89.589249 0.440842 87.706978 5.736195 1.833354 -4.349121 -2.953722 -6.030670 13.009908 0.110248 10.091480 -8.399176 0.000000 -0.000000 0.000000 -3.621552 -1.717657 -4.829823 -0.451126 1.831232 13.158376 1.157467 -5.332796 -7.718451 0.000000 -0.000000 0.000000 0.141956 1.912469 8.111496 -1.877920 -3.411580 7.945507 -2.962918 -0.441902 -7.190103 -3.117174 -7.823098 1.349647 3.635508 -5.697999 -5.383675 -31.195606 -2.443224 1.321853 -51.965415 -4.004848 11.287163 18.018657 -27.794124 -11.984827 -4.260741 -10.515194 -0.221884 26.664747 10.743783 2.751219 55.703957 6.152261 16.485372 -4.631065 22.036751 4.326227 7.933705 5.856699 7.704565 
0.002823 0.217664 0.998382 89.494410 0.494342 87.774919 5.746902 1.850484 -4.467647 -2.932264 -6.095502 13.078105 0.056357 10.265939 -8.396409 0.000000 -0.000000 0.000000 -3.545198 -1.698749 -4.956965 -0.444030 1.984720 13.157968 1.112390 -5.416483 -7.716346 0.000000 -0.000000 0.000000 0.195488 1.902508 8.523909 -1.937755 -3.383041 7.722485 -2.898304 -0.335300 -6.963755 -2.346935 -7.174256 -0.397355 4.657569 -5.022678 -7.630593 -31.120768 -2.718585 1.193203 -51.808242 -3.444233 11.067856 17.744190 -27.824555 -11.888030 -4.259860 -10.615626 -0.139820 26.420456 10.918604 2.599190 55.710249 5.662868 16.286328 -4.603762 22.145476 4.462191 7.645257 5.883419 7.603532 
0.002431 0.217522 0.998986 89.376053 0.571132 87.840045 5.747604 1.790306 -4.503082 -2.834591 -6.142053 13.024739 0.061291 10.448789 -8.399073 0.000000 -0.000000 0.000000 -3.368106 -1.607447 -5.065063 -0.496465 2.174164 13.147604 1.112230 -5.522129 -7.807302 0.000000 -0.000000 0.000000 0.236646 1.938669 8.932079 -1.951733 -3.370729 7.430884 -2.815661 -0.307420 -6.773317 -1.529542 -6.654114 -2.080924 5.524520 -4.209701 -9.395046 -31.156670 -2.936199 0.959754 -51.634423 -2.907417 10.945965 17.691406 -27.719220 -11.863676 -4.374612 -10.533482 -0.077453 26.229979 11.013615 2.375837 55.640803 5.329328 16.230697 -4.495674 22.147480 4.729734 7.877549 5.742368 7.527371 
0.002214 0.217452 0.999424 89.379540 0.634081 87.914345 5.817948 1.856651 -4.492905 -2.824279 -6.207931 12.791451 0.024127 10.474550 -8.171169 0.000000 -0.000000 0.000000 -3.310489 -1.689623 -5.155529 -0.425056 2.102592 13.168572 0.963607 -5.530447 -7.667180 0.000000 -0.000000 0.000000 0.264289 1.961221 9.234946 -1.966382 -3.376508 7.258369 -2.690557 -0.287357 -6.712889 -0.901391 -6.268131 -3.406769 6.262077 -3.665178 -11.125275 -31.168468 -3.152284 0.820945 -51.570421 -2.659252 10.661704 17.604617 -27.265932 -11.910405 -4.794099 -10.477192 -0.213774 26.078239 11.209282 2.296779 55.625015 5.046756 16.119031 -4.599590 22.009397 4.884438 8.071920 5.725659 7.492063 
